<?xml version="1.0" encoding="UTF-8"?>
<svg version="1.1" xmlns="http://www.w3.org/2000/svg" width="512" height="512">
<path d="M0 0 C5.14412064 4.54397324 8.04507989 10.09679812 8.69824219 16.95721436 C8.99046073 22.80486332 8.864917 28.64899023 8.75 34.5 C8.72990223 36.28513619 8.71165726 38.07029425 8.6953125 39.85546875 C8.65158086 44.1958596 8.58273589 48.5351846 8.5 52.875 C11.8 52.875 15.1 52.875 18.5 52.875 C18.47905273 51.77099854 18.45810547 50.66699707 18.43652344 49.52954102 C18.36362393 45.39783923 18.3180204 41.26619323 18.28027344 37.1340332 C18.26027095 35.35236014 18.23305977 33.57075177 18.19824219 31.78930664 C17.83503813 12.71575225 17.83503813 12.71575225 22.5 5.875 C23.04140625 5.05386719 23.5828125 4.23273437 24.140625 3.38671875 C30.73376361 -4.08657185 38.44777623 -7.66766808 48.48046875 -8.42578125 C66.30454203 -8.67602485 81.08076823 -4.14547599 94.23046875 8.515625 C100.96015428 15.51171805 112.5 28.3963299 112.5 38.875 C113.10585938 39.02195313 113.71171875 39.16890625 114.3359375 39.3203125 C130.01941031 43.51865753 140.51134685 53.22724474 148.71875 66.90625 C152.7933768 74.4381359 154.52396192 82.23812651 154.8125 90.75 C155.01177064 95.70521783 155.01177064 95.70521783 158.0625 99.5 C158.59875 99.8403125 159.135 100.180625 159.6875 100.53125 C168.28172817 106.90283295 174.28433201 119.87798489 176.21875 130.23828125 C177.85408155 145.56951454 175.49177278 158.52988659 167.5 171.875 C166.39220296 173.19943291 165.24984441 174.4963852 164.0625 175.75 C161.73855092 178.22374204 161.73855092 178.22374204 161.4375 181.625 C162.03834693 183.46288474 162.64254772 185.29970405 163.2578125 187.1328125 C167.67950468 201.51404435 166.28883373 215.37339993 160.0625 229.02734375 C154.12004082 240.12660043 145.01180033 249.53586756 133.5 254.875 C132.84 254.875 132.18 254.875 131.5 254.875 C131.438125 256.1125 131.37625 257.35 131.3125 258.625 C129.67985434 272.37359502 121.280514 284.39230697 110.76489258 293.03710938 C95.54377632 304.875 95.54377632 304.875 88.5 304.875 C88.50999275 306.23230728 88.50999275 306.23230728 88.52018738 307.61703491 C88.58050245 316.17868723 88.62607763 324.74026735 88.65543652 333.30208397 C88.67103804 337.70294698 88.69217452 342.10363322 88.72631836 346.50439453 C88.75910985 350.75786685 88.7768944 355.01117001 88.78463173 359.26475906 C88.79013995 360.88093348 88.80089542 362.49709949 88.81719017 364.11320114 C88.94201824 377.01629725 88.21148566 387.43794832 79.1875 397.4375 C71.99074186 403.96479226 66.147262 407.18909928 56.125 407 C54.87976563 406.98195313 53.63453125 406.96390625 52.3515625 406.9453125 C50.94003906 406.91050781 50.94003906 406.91050781 49.5 406.875 C49.46132813 407.81859375 49.46132813 407.81859375 49.421875 408.78125 C48.71681523 419.42124287 44.44570622 426.73308827 36.5 433.875 C26.44090219 440.52541321 17.35325658 441.96745233 5.5 440.875 C-4.4388644 438.60437171 -12.07251981 432.31261012 -18.0234375 424.2421875 C-21.54780668 418.59200833 -22.66080885 413.48708158 -22.5 406.875 C-23.40621094 406.92140625 -24.31242187 406.9678125 -25.24609375 407.015625 C-33.02681989 407.24616503 -38.7998828 406.94867125 -45.5 402.875 C-46.12390625 402.524375 -46.7478125 402.17375 -47.390625 401.8125 C-54.31986569 397.47419279 -58.36688059 390.50926178 -60.85995483 382.85165405 C-62.28373138 376.23010539 -61.85978753 369.33172084 -61.79296875 362.58984375 C-61.78736464 360.92119226 -61.7830984 359.25253578 -61.78010559 357.58387756 C-61.76872089 353.21906603 -61.73930962 348.85456004 -61.70599365 344.48986816 C-61.67515432 340.02518851 -61.66157079 335.56045888 -61.64648438 331.09570312 C-61.61443295 322.35532946 -61.56331504 313.61520288 -61.5 304.875 C-62.90439331 304.41685913 -62.90439331 304.41685913 -64.3371582 303.94946289 C-79.85343811 298.67835923 -92.57752551 287.18154221 -100.1328125 272.7578125 C-102.80012222 266.76779696 -104.17292551 261.4164898 -104.5 254.875 C-105.304375 254.689375 -106.10875 254.50375 -106.9375 254.3125 C-119.48500942 249.24946988 -128.65049314 237.65159339 -134.5 225.875 C-140.12027206 212.39046448 -139.95373944 198.45207775 -135.27734375 184.80078125 C-134.48498056 181.81846955 -134.26989666 180.65001986 -135.5 177.875 C-136.95933719 175.842134 -136.95933719 175.842134 -138.75 173.8125 C-148.1830454 161.99698113 -150.5367776 148.68610856 -149.5 133.875 C-147.47093833 120.16604554 -141.17268325 109.58453157 -131.5 99.875 C-130.93410156 99.4625 -130.36820313 99.05 -129.78515625 98.625 C-127.59708634 95.64550055 -127.85827875 92.01700834 -127.625 88.4375 C-126.57511315 76.64039698 -122.62470007 67.34407439 -115.5 57.875 C-114.82517578 56.95267578 -114.82517578 56.95267578 -114.13671875 56.01171875 C-107.32931505 47.36343968 -97.75712658 42.39682985 -87.5 38.875 C-86.84 38.875 -86.18 38.875 -85.5 38.875 C-85.17 37.658125 -84.84 36.44125 -84.5 35.1875 C-79.36918601 19.93891264 -67.51988767 5.80984 -53.359375 -1.81640625 C-36.52698121 -9.93901488 -15.38109648 -12.6496645 0 0 Z M8.5 60.875 C8.5 125.885 8.5 190.895 8.5 257.875 C11.8 257.875 15.1 257.875 18.5 257.875 C18.5 192.865 18.5 127.855 18.5 60.875 C15.2 60.875 11.9 60.875 8.5 60.875 Z M8.5 265.875 C8.25765625 266.9371875 8.0153125 267.999375 7.765625 269.09375 C4.59300817 282.64146481 0.48638304 290.88861696 -9.5 300.875 C5.68 300.875 20.86 300.875 36.5 300.875 C34.85 299.225 33.2 297.575 31.5 295.875 C23.60931048 286.57326953 20.71716286 277.83424208 18.5 265.875 C15.2 265.875 11.9 265.875 8.5 265.875 Z " fill="#363F6B" transform="translate(242.5,51.125)"/>
<path d="M0 0 C4.4208464 3.06244087 6.67746156 5.59227802 8.7109375 10.67578125 C9.14565249 14.18747478 9.12012008 17.67241212 9.09861755 21.20735168 C9.10669586 22.79810179 9.10669586 22.79810179 9.11493737 24.42098826 C9.12924469 27.97454316 9.12210613 31.52772701 9.11499023 35.08129883 C9.12069239 37.62912801 9.12765604 40.17695464 9.13578796 42.72477722 C9.1518869 48.92736933 9.15381608 55.12982443 9.14857506 61.33243112 C9.14453125 66.37560445 9.14597943 71.41874788 9.15132332 76.46191978 C9.15207174 77.18010226 9.15282016 77.89828474 9.15359126 78.63823032 C9.15512277 80.09730954 9.15666112 81.55638876 9.15820623 83.01546796 C9.17193136 96.6959394 9.16649393 110.37635363 9.15502102 124.05682375 C9.14509275 136.56314786 9.1580222 149.06932394 9.18195521 161.57562522 C9.20635938 174.42524503 9.21595059 187.27479594 9.20930248 200.12443846 C9.20581265 207.33522354 9.20802646 214.54589484 9.22555351 221.75666237 C9.24183481 228.53894718 9.23707332 235.3209046 9.21824837 242.1031971 C9.21456067 244.5908223 9.21767615 247.07846841 9.22813416 249.56607437 C9.24133281 252.96546186 9.22980506 256.3639125 9.21214294 259.76325989 C9.22655045 261.23526729 9.22655045 261.23526729 9.24124902 262.73701221 C9.13839717 272.3774074 5.51874301 280.70319209 -1.2265625 287.6796875 C-9.89441514 295.85094441 -17.32090338 298.34535327 -29.1640625 298.11328125 C-30.68193359 298.12391602 -30.68193359 298.12391602 -32.23046875 298.13476562 C-48.89019309 297.99611235 -63.95220466 291.29420423 -75.65625 279.57421875 C-82.49513687 272.04535516 -88.2890625 263.11019718 -88.2890625 252.67578125 C-87.48984375 252.58941406 -86.690625 252.50304687 -85.8671875 252.4140625 C-75.15550536 251.04367124 -66.54949965 248.02817725 -57.6640625 241.86328125 C-53.02153087 238.75491956 -50.18892562 238.26189818 -44.7109375 238.671875 C-40.39386771 238.67883802 -36.84041695 237.04576677 -33.2890625 234.67578125 C-29.22659344 229.69925665 -27.87580368 225.39705696 -27.9375 219.09375 C-28.67583979 214.01561302 -31.68837157 210.17946061 -35.3515625 206.73828125 C-40.23254622 204.06161276 -45.86458207 204.05780247 -51.2890625 204.67578125 C-55.69977189 206.88113594 -58.53661996 209.5980886 -61.2890625 213.67578125 C-62.78565803 218.49481885 -63.43295343 224.0283481 -61.39453125 228.74609375 C-60.40511519 230.41726293 -59.35098096 232.0497186 -58.2890625 233.67578125 C-58.2890625 234.33578125 -58.2890625 234.99578125 -58.2890625 235.67578125 C-67.23892036 242.74677505 -79.0685011 246.61136927 -90.4375 246.19140625 C-95.51275294 245.27368928 -99.23002691 242.74480816 -103.2890625 239.67578125 C-103.92585938 239.21945312 -104.56265625 238.763125 -105.21875 238.29296875 C-115.21397586 230.51890419 -121.34498875 218.04715968 -123.2890625 205.67578125 C-124.18848897 195.51668558 -122.60588384 184.62961289 -116.09375 176.3984375 C-107.84172878 168.52150815 -98.48501018 162.69807822 -86.9765625 162.23828125 C-77.336041 162.47314314 -68.12649317 165.66489689 -61.328125 172.70703125 C-59.97011614 174.14076551 -58.63121773 175.59295698 -57.31640625 177.06640625 C-54.80674565 179.05866091 -53.41461498 179.00079537 -50.2890625 178.67578125 C-53.81688334 168.50735649 -61.11356504 163.71584323 -70.2890625 158.67578125 C-69.5878125 157.99515625 -68.8865625 157.31453125 -68.1640625 156.61328125 C-63.60649526 152.01709056 -59.73633139 147.77165244 -56.9765625 141.86328125 C-54.92171841 137.93919189 -54.92171841 137.93919189 -52.1875 136.80078125 C-50.63302709 136.50964251 -49.07089003 136.25676687 -47.50390625 136.04296875 C-43.99942455 135.46197884 -41.92445699 133.9974383 -39.2890625 131.67578125 C-35.8327506 126.03047181 -35.27184131 120.20135116 -36.2890625 113.67578125 C-37.98604654 109.67263941 -40.42034979 107.33261281 -43.8515625 104.73828125 C-50.18491308 102.78070016 -56.60083454 102.50273632 -62.7265625 105.17578125 C-66.96256611 109.3084677 -69.88297007 113.1941053 -70.8515625 119.11328125 C-69.89730118 125.15693628 -68.05794551 130.0275039 -63.5390625 134.23828125 C-62.7965625 134.71265625 -62.0540625 135.18703125 -61.2890625 135.67578125 C-62.83031634 143.57470719 -69.10438352 148.67738043 -75.23828125 153.328125 C-79.03060762 155.82022519 -82.30379606 155.78772388 -86.7265625 155.92578125 C-98.80239867 156.74658989 -109.70547487 162.09219362 -118.2890625 170.67578125 C-120.1953125 170.60546875 -120.1953125 170.60546875 -122.2890625 169.67578125 C-132.46732176 157.57793801 -134.57234206 144.37174566 -133.55957031 129.08398438 C-132.95219351 123.67679592 -131.06898916 119.29495231 -128.2890625 114.67578125 C-127.75796875 113.78632813 -127.226875 112.896875 -126.6796875 111.98046875 C-123.84355442 107.62219085 -121.28171961 104.58488198 -116.9765625 101.67578125 C-113.20604762 98.63761638 -112.70571444 95.87238688 -112.18017578 91.27368164 C-111.91230729 88.10261981 -111.68445961 84.92980627 -111.46777344 81.75488281 C-110.53790462 70.93690072 -104.33242721 60.72031751 -96.50390625 53.37109375 C-86.98029685 46.08141742 -76.97750658 41.27642502 -64.8515625 41.36328125 C-64.10527588 41.36457031 -63.35898926 41.36585937 -62.59008789 41.3671875 C-57.24922889 41.46071245 -53.09716182 42.2205816 -48.2890625 44.67578125 C-48.23298828 45.76246094 -48.23298828 45.76246094 -48.17578125 46.87109375 C-47.68525078 54.0847771 -46.96431748 59.48499209 -41.3515625 64.48828125 C-36.52058759 67.93897761 -32.19306777 68.29244718 -26.2890625 67.67578125 C-21.02311906 65.81721298 -18.49510482 63.07263929 -15.2890625 58.67578125 C-13.35111091 52.86192649 -13.26850558 46.75469349 -15.9765625 41.23828125 C-19.6852466 37.12865833 -22.87373455 34.03436129 -28.55859375 33.4375 C-34.47500737 33.26482433 -37.49584893 33.90968488 -42.2890625 37.67578125 C-44.3515625 38.55078125 -44.3515625 38.55078125 -46.2890625 38.67578125 C-46.96195312 38.3715625 -47.63484375 38.06734375 -48.328125 37.75390625 C-52.36788167 36.28296583 -56.34037576 35.96109284 -60.6015625 35.55078125 C-61.43751953 35.46441406 -62.27347656 35.37804687 -63.13476562 35.2890625 C-65.1855388 35.07812583 -67.23722153 34.87606479 -69.2890625 34.67578125 C-61.78782023 18.40746207 -52.68879989 5.4911666 -35.2890625 -1.32421875 C-23.63330027 -5.43801718 -11.07624756 -6.40759031 0 0 Z " fill="#FBD362" transform="translate(234.2890625,54.32421875)"/>
<path d="M0 0 C10.57129007 7.69314774 16.30668862 17.870795 21.65625 29.47265625 C20.29693359 29.52873047 20.29693359 29.52873047 18.91015625 29.5859375 C12.37436726 29.93866262 6.58342656 30.37902884 0.5234375 32.94921875 C-1.80598805 33.60223763 -3.08742511 33.28549379 -5.34375 32.47265625 C-6.69164347 31.49237009 -8.02587715 30.4929449 -9.34375 29.47265625 C-14.01439788 27.91577362 -19.67576678 27.22832192 -24.26171875 29.3671875 C-25.66315191 30.34646054 -27.00871767 31.40463038 -28.34375 32.47265625 C-29.00375 32.47265625 -29.66375 32.47265625 -30.34375 32.47265625 C-30.8078125 33.64828125 -30.8078125 33.64828125 -31.28125 34.84765625 C-32.34375 37.47265625 -32.34375 37.47265625 -33.34375 39.47265625 C-33.87154267 45.68436995 -34.08778643 51.23100525 -30.34375 56.47265625 C-25.89732514 61.04363083 -22.70096389 62.32057793 -16.46875 62.72265625 C-11.77496821 62.6355731 -8.2722655 61.42723277 -4.8984375 58.0078125 C-1.14216139 53.61833556 -0.20390107 51.02325632 0.21875 45.34765625 C0.30253906 44.25195312 0.38632812 43.15625 0.47265625 42.02734375 C0.56353516 40.76277344 0.56353516 40.76277344 0.65625 39.47265625 C10.89202292 35.08589643 22.05392033 34.78263747 32.53125 38.53515625 C46.86297129 44.85953759 56.94332797 54.80383334 62.65625 69.47265625 C63.95883773 74.14626247 64.64720522 78.69309518 64.671875 83.546875 C64.65506896 89.54841048 64.65506896 89.54841048 67.47265625 94.62109375 C69.03684508 95.91796774 70.62671095 97.18437348 72.23828125 98.421875 C76.49435748 102.03163271 78.99943336 106.62706321 81.65625 111.47265625 C82.09195313 112.19453125 82.52765625 112.91640625 82.9765625 113.66015625 C87.80229542 123.10914378 87.06114254 136.26875027 84.7734375 146.37109375 C82.21979754 153.49084491 78.30397657 159.53910331 73.65625 165.47265625 C70.1377068 164.87576053 68.32299837 163.54595975 65.65625 161.22265625 C58.01711212 155.05551172 48.84814002 151.49755906 39.09375 151.34765625 C29.7932783 150.73338361 24.341796 146.58638258 18.15625 139.91015625 C15.80800965 136.97817253 14.55321988 134.15023274 13.65625 130.47265625 C14.584375 129.77140625 15.5125 129.07015625 16.46875 128.34765625 C20.80943302 124.68424292 22.45163747 121.28493866 23.09375 115.59765625 C22.84364453 109.66333556 20.34323803 105.07735218 16.09375 101.03515625 C10.72647221 97.59459356 4.83476954 97.76128725 -1.34375 98.47265625 C-5.17247806 100.08299388 -7.52243603 102.57186028 -10.28125 105.59765625 C-12.48222187 111.55322721 -12.31752367 118.07235392 -9.78125 123.91015625 C-7.49715409 127.83494078 -4.62552985 130.00051391 -0.34375 131.47265625 C0.8525 131.53453125 2.04875 131.59640625 3.28125 131.66015625 C6.65625 132.47265625 6.65625 132.47265625 7.9609375 134.24609375 C8.77952245 135.81371067 9.57135551 137.39550695 10.33984375 138.98828125 C13.32218309 144.61667241 18.16933284 149.02501189 22.65625 153.47265625 C21.94339844 153.89675781 21.23054688 154.32085937 20.49609375 154.7578125 C9.84191648 160.87786281 9.84191648 160.87786281 3.71875 170.91015625 C3.698125 171.75578125 3.6775 172.60140625 3.65625 173.47265625 C8.17565846 172.99941976 9.87659481 171.585061 12.84375 168.22265625 C18.45900643 162.31582034 25.61864832 157.84111393 33.9140625 157.234375 C41.678244 157.08536546 47.89915014 157.28479588 54.65625 161.47265625 C55.43742187 161.95476562 56.21859375 162.436875 57.0234375 162.93359375 C59.2793268 164.39067635 61.46782977 165.91682624 63.65625 167.47265625 C64.56375 168.05015625 65.47125 168.62765625 66.40625 169.22265625 C72.80799157 175.62439782 75.66896338 185.18835069 76.03125 194.03515625 C75.75107093 208.02659835 70.02701282 220.32234166 60.7265625 230.58203125 C53.54599815 237.1393768 46.71116473 240.85378707 37.08203125 240.75 C27.19070509 239.94921989 18.7773516 235.97227359 10.65625 230.47265625 C11.59652479 228.05480678 12.52605125 225.7132709 13.76171875 223.4296875 C15.9228611 218.70159877 14.97445495 213.5333394 13.53125 208.72265625 C10.85312672 204.08057589 7.85439814 201.2053723 2.65625 199.47265625 C-3.14698017 198.73201783 -7.9469946 198.6181436 -12.84375 202.09765625 C-16.62221772 205.41930103 -18.9026393 208.47422019 -19.65234375 213.5703125 C-19.97534993 219.27675497 -18.76026606 223.85461314 -15.34375 228.47265625 C-10.61134756 232.23926227 -7.45727963 233.6123476 -1.53125 232.97265625 C4.68061172 232.874445 8.43878108 235.55012046 13.31054688 238.97265625 C21.58140588 244.68542444 30.71547956 246.79870571 40.65625 247.47265625 C40.18044367 259.84362078 32.98781137 269.86452046 24.22412109 278.12255859 C9.05631813 291.18359104 -8.17876525 293.69873938 -27.48583984 292.75390625 C-36.27470321 291.88898479 -42.85360342 286.92721364 -48.7265625 280.5546875 C-51.16741857 277.41223271 -52.86075651 274.15077377 -54.34375 270.47265625 C-54.85467996 269.49691886 -54.85467996 269.49691886 -55.37593174 268.50146961 C-56.80511252 264.02880978 -56.62927453 259.7230392 -56.61790466 255.05461121 C-56.62314134 253.99425999 -56.62837802 252.93390878 -56.63377339 251.84142572 C-56.64879488 248.2825108 -56.64947902 244.72373939 -56.65014648 241.16479492 C-56.65776649 238.6154913 -56.66619371 236.06618998 -56.67536926 233.51689148 C-56.69733619 226.58711276 -56.70613783 219.65738385 -56.71119571 212.72757506 C-56.71445451 208.39919756 -56.72097807 204.07082892 -56.7281971 199.74245644 C-56.74776004 187.75401566 -56.76416627 175.76558312 -56.76707363 163.77712536 C-56.7672612 163.01023453 -56.76744877 162.24334371 -56.76764202 161.45321377 C-56.76800827 159.89860332 -56.76837197 158.34399287 -56.76873314 156.78938242 C-56.76891595 156.01769237 -56.76909876 155.24600233 -56.76928711 154.45092773 C-56.76946766 153.67829388 -56.76964821 152.90566004 -56.76983423 152.10961304 C-56.77337604 139.58959648 -56.80040018 127.06975191 -56.837785 114.54979499 C-56.87587663 101.69004774 -56.89523117 88.8303858 -56.89553314 75.97058088 C-56.89611749 68.75250467 -56.90459486 61.53463368 -56.93353081 54.31661034 C-56.96062162 47.52774302 -56.96194236 40.73935054 -56.94587517 33.9504261 C-56.94405701 31.45914703 -56.95078422 28.96784484 -56.96669388 26.47661591 C-56.98709577 23.07447832 -56.97663534 19.67377126 -56.95848083 16.27165222 C-56.9716808 15.28671899 -56.98488077 14.30178577 -56.99848074 13.28700608 C-56.91922258 6.78033395 -55.48950909 2.53449996 -51.34375 -2.52734375 C-36.82174516 -15.68257166 -14.63693708 -9.538404 0 0 Z " fill="#FBD362" transform="translate(325.34375,59.52734375)"/>
<path d="M0 0 C44.88 0 89.76 0 136 0 C136 8.58 136 17.16 136 26 C91.12 26 46.24 26 0 26 C0 17.42 0 8.84 0 0 Z " fill="#9196AA" transform="translate(188,359)"/>
<path d="M0 0 C44.55 0 89.1 0 135 0 C135 8.58 135 17.16 135 26 C90.45 26 45.9 26 0 26 C0 17.42 0 8.84 0 0 Z " fill="#9196AA" transform="translate(188,392)"/>
<path d="M0 0 C44.22 0 88.44 0 134 0 C134 8.5316754 133.04756662 11.59141223 128 18 C120.86593286 25.00435683 113.37841866 26.29874858 103.73510742 26.30639648 C102.38241508 26.31888176 102.38241508 26.31888176 101.00239563 26.33161926 C98.03670874 26.3556111 95.07124224 26.364478 92.10546875 26.37109375 C90.03192584 26.38006806 87.95838356 26.38919005 85.88484192 26.39845276 C81.54324779 26.41491576 77.20173052 26.42263802 72.86010742 26.42553711 C67.31538097 26.43091906 61.77138364 26.4686035 56.22686291 26.51428127 C51.94498599 26.54412143 47.66328324 26.55126218 43.38131142 26.55226326 C41.33809379 26.55645145 39.29487497 26.56882903 37.25176048 26.58978081 C15.13331981 26.79856005 15.13331981 26.79856005 7.12467957 19.22703552 C1.36989436 13.0951896 0 8.61373212 0 0 Z " fill="#9196AA" transform="translate(189,425)"/>
<path d="M0 0 C11.03327958 8.3151945 18.27782128 19.19935321 20.421875 32.95703125 C20.6875 35.75 20.6875 35.75 20.703125 38.82421875 C20.68631896 44.82575423 20.68631896 44.82575423 23.50390625 49.8984375 C25.06809508 51.19531149 26.65796095 52.46171723 28.26953125 53.69921875 C32.52560748 57.30897646 35.03068336 61.90440696 37.6875 66.75 C38.12320313 67.471875 38.55890625 68.19375 39.0078125 68.9375 C43.83354542 78.38648753 43.09239254 91.54609402 40.8046875 101.6484375 C38.25104754 108.76818866 34.33522657 114.81644706 29.6875 120.75 C27.8125 120.4375 27.8125 120.4375 25.6875 119.75 C25.0275 118.76 24.3675 117.77 23.6875 116.75 C24.31191394 114.73640826 24.98585358 112.73799818 25.6875 110.75 C27.07999434 96.61456327 23.7726473 83.46196392 15.6875 71.75 C10.79278928 66.01593295 10.79278928 66.01593295 4.6875 61.75 C4.47593001 59.29276564 4.36769027 56.89892993 4.3125 54.4375 C3.69651061 40.50714052 -1.46422701 27.82209737 -11.3125 17.75 C-17.85163026 12.44735982 -26.02249202 6.7721263 -34.5 5.39453125 C-36.3125 4.75 -36.3125 4.75 -37.5078125 2.75390625 C-37.81460937 1.94824219 -38.12140625 1.14257812 -38.4375 0.3125 C-39.83903197 -3.29887035 -39.83903197 -3.29887035 -42.3125 -6.25 C-27.38544066 -11.22568645 -13.014661 -8.49815764 0 0 Z " fill="#F5BD56" transform="translate(369.3125,104.25)"/>
<path d="M0 0 C0.77923828 0.00902344 1.55847656 0.01804687 2.36132812 0.02734375 C4.26185447 0.05066309 6.16222008 0.08652414 8.0625 0.125 C7.13630859 0.45371094 7.13630859 0.45371094 6.19140625 0.7890625 C3.31014437 2.59712041 3.05658851 4.30884604 2 7.5 C-0.20394331 12.69887241 -0.20394331 12.69887241 -3.3515625 14.52734375 C-5.23168352 15.14434121 -7.12621597 15.71875556 -9.03125 16.25390625 C-20.46897157 19.68214806 -28.87688512 28.38888708 -34.62109375 38.53125 C-37.82090703 44.83592662 -40.9375 51.35923818 -40.9375 58.515625 C-40.9375 68.82027897 -40.9375 68.82027897 -43.7578125 72.5 C-45.31445942 73.76642461 -46.90341739 74.99399007 -48.51953125 76.18359375 C-56.77120371 82.80892689 -61.37270597 94.87028184 -62.9375 105.125 C-63.00451506 107.56166765 -63.02278021 110.00001742 -63 112.4375 C-62.99097656 113.69175781 -62.98195313 114.94601563 -62.97265625 116.23828125 C-62.96105469 117.19089844 -62.94945313 118.14351563 -62.9375 119.125 C-68.79231501 112.71258356 -69.49754753 104.10438005 -69.4375 95.8125 C-69.43177979 94.89041748 -69.42605957 93.96833496 -69.42016602 93.01831055 C-69.2245308 85.52818254 -67.83723801 79.60486771 -63.9375 73.125 C-63.40640625 72.23554688 -62.8753125 71.34609375 -62.328125 70.4296875 C-59.49199192 66.0714096 -56.93015711 63.03410073 -52.625 60.125 C-48.85448512 57.08683513 -48.35415194 54.32160563 -47.82861328 49.72290039 C-47.56074479 46.55183856 -47.33289711 43.37902502 -47.11621094 40.20410156 C-46.18634212 29.38611947 -39.98086471 19.16953626 -32.15234375 11.8203125 C-22.37902553 4.33950103 -12.41962911 -0.27670125 0 0 Z " fill="#F4BC56" transform="translate(169.9375,95.875)"/>
<path d="M0 0 C10.57129007 7.69314774 16.30668862 17.870795 21.65625 29.47265625 C20.7384375 29.52164063 19.820625 29.570625 18.875 29.62109375 C12.22760914 30.02608185 6.04237141 30.55681983 -0.34375 32.47265625 C-0.88902344 31.69921875 -1.43429687 30.92578125 -1.99609375 30.12890625 C-12.12487347 16.13907033 -23.85641192 6.63928233 -41.34375 3.47265625 C-45.67325018 2.99055034 -49.99257385 2.67326691 -54.34375 2.47265625 C-50.97417318 -3.73610104 -46.56586924 -6.20058877 -40.15625 -8.83984375 C-25.47927075 -11.48651214 -12.36074576 -8.05508599 0 0 Z " fill="#F4BC56" transform="translate(325.34375,59.52734375)"/>
<path d="M0 0 C19.14 0 38.28 0 58 0 C56.64089747 9.51371772 53.74937701 16.04823676 46 22 C37.97183337 26.40814474 29.65412945 28.76733678 20.55859375 26.3515625 C12.80369539 23.19565604 5.82582786 17.50450849 2 10 C1.34 6.7 0.68 3.4 0 0 Z " fill="#9196AA" transform="translate(227,458)"/>
<path d="M0 0 C4.34887948 2.97472726 6.65061292 5.2936475 7.67578125 10.67578125 C6.68578125 10.34578125 5.69578125 10.01578125 4.67578125 9.67578125 C-10.24611267 6.03114167 -24.73864501 9.44288954 -37.82421875 17.05078125 C-44.4544291 21.36041798 -48.94916368 25.99553863 -52.90234375 32.85546875 C-54.32421875 34.67578125 -54.32421875 34.67578125 -56.13671875 35.4609375 C-58.85575164 35.72798537 -61.35835374 35.52926679 -64.07421875 35.23828125 C-65.55148438 35.08552734 -65.55148438 35.08552734 -67.05859375 34.9296875 C-67.80625 34.84589844 -68.55390625 34.76210937 -69.32421875 34.67578125 C-61.82297648 18.40746207 -52.72395614 5.4911666 -35.32421875 -1.32421875 C-23.6144132 -5.4570913 -11.14577587 -6.35028239 0 0 Z " fill="#F3BB56" transform="translate(234.32421875,54.32421875)"/>
<path d="M0 0 C1.8359375 0.2109375 1.8359375 0.2109375 4 1 C10.03752 9.70603712 11.98009455 19.5987466 11 30 C8.59043094 42.39011362 3.31869899 53.31956806 -6 62 C-8.2109375 63.21875 -8.2109375 63.21875 -10 64 C-9.41562112 60.75471146 -8.58542046 57.83330327 -7.4375 54.75 C-4.24168679 44.1500255 -4.95491946 32.73317699 -9.02734375 22.515625 C-10.02872759 19.92570053 -10.80231521 17.77657273 -11 15 C-9.70703125 13.0078125 -9.70703125 13.0078125 -7.8125 11.125 C-4.48104346 7.62030772 -2.228995 4.2796704 0 0 Z " fill="#F3BB56" transform="translate(390,230)"/>
<path d="M0 0 C1.2065625 0.0309375 1.2065625 0.0309375 2.4375 0.0625 C5.69758984 6.84102643 3.66010299 13.21301909 1.46484375 20.125 C-4.21323832 34.90726112 -13.51451873 44.9663287 -27.6328125 51.80078125 C-33.14623226 54.17522736 -37.50906707 55.41858429 -43.5625 55.0625 C-44.5625 54.0625 -44.5625 54.0625 -44.625 51.5 C-44.604375 50.695625 -44.58375 49.89125 -44.5625 49.0625 C-43.61375 48.65 -42.665 48.2375 -41.6875 47.8125 C-41.048125 47.5340625 -40.40875 47.255625 -39.75 46.96875 C-38.24516034 46.34531643 -36.72238521 45.76403817 -35.1875 45.21875 C-23.66363304 41.04134823 -14.30443113 33.03289736 -8.8125 22 C-6.32322845 16.1780524 -5.21473301 10.26203261 -4.140625 4.0546875 C-3.37310848 0.08227094 -3.37310848 0.08227094 0 0 Z " fill="#313B6A" transform="translate(347.5625,422.9375)"/>
<path d="M0 0 C44.88 0 89.76 0 136 0 C136 8.58 136 17.16 136 26 C130.39 26 124.78 26 119 26 C119 17.75 119 9.5 119 1 C80.06 1 41.12 1 1 1 C1 9.25 1 17.5 1 26 C0.67 26 0.34 26 0 26 C0 17.42 0 8.84 0 0 Z " fill="#7A7E97" transform="translate(188,359)"/>
<path d="M0 0 C44.55 0 89.1 0 135 0 C135 8.58 135 17.16 135 26 C129.72 26 124.44 26 119 26 C119 17.75 119 9.5 119 1 C80.06 1 41.12 1 1 1 C1 9.25 1 17.5 1 26 C0.67 26 0.34 26 0 26 C0 17.42 0 8.84 0 0 Z " fill="#82869C" transform="translate(188,392)"/>
<path d="M0 0 C44.22 0 88.44 0 134 0 C134 8.5316754 133.04756662 11.59141223 128 18 C122.00982176 23.88126591 115.937879 26.07788113 107.5625 26.125 C106.04142704 26.09326375 104.52040718 26.05506505 103 26 C105.13267271 23.86732729 107.25720124 21.76851889 109.5 19.75 C114.69359852 14.03704163 116.11373863 8.5450455 118 1 C79.06 1 40.12 1 0 1 C0 0.67 0 0.34 0 0 Z " fill="#82869C" transform="translate(189,425)"/>
<path d="M0 0 C2.9375 0.1875 2.9375 0.1875 3.9375 1.1875 C4.03618509 2.83941396 4.06548837 4.49553217 4.06689453 6.15039062 C4.07004669 7.20818726 4.07319885 8.26598389 4.07644653 9.35583496 C4.0744223 10.50684692 4.07239807 11.65785889 4.0703125 12.84375 C4.07126923 14.01635376 4.07222595 15.18895752 4.07321167 16.39709473 C4.0738937 18.88208062 4.07203784 21.36706829 4.06787109 23.85205078 C4.06252319 27.67093887 4.06781536 31.48970935 4.07421875 35.30859375 C4.07355797 37.71614609 4.07227682 40.12369837 4.0703125 42.53125 C4.07233673 43.68226196 4.07436096 44.83327393 4.07644653 46.01916504 C4.07329437 47.07696167 4.07014221 48.1347583 4.06689453 49.22460938 C4.06570114 50.62906311 4.06570114 50.62906311 4.06448364 52.06188965 C3.9375 54.1875 3.9375 54.1875 2.9375 55.1875 C0 55.375 0 55.375 -3.0625 55.1875 C-5.5886485 52.6613515 -5.31507703 51.80674387 -5.32128906 48.31054688 C-5.32759338 47.29609497 -5.33389771 46.28164307 -5.34039307 45.2364502 C-5.3363446 44.13748413 -5.33229614 43.03851807 -5.328125 41.90625 C-5.33003845 40.78182495 -5.3319519 39.6573999 -5.33392334 38.49890137 C-5.33528617 36.11824317 -5.33158294 33.73757757 -5.32324219 31.35693359 C-5.31254429 27.70263047 -5.32313444 24.04881899 -5.3359375 20.39453125 C-5.33461592 18.08593641 -5.33205357 15.77734188 -5.328125 13.46875 C-5.33217346 12.36978394 -5.33622192 11.27081787 -5.34039307 10.1385498 C-5.33408875 9.1240979 -5.32778442 8.109646 -5.32128906 7.06445312 C-5.31969788 6.16891724 -5.31810669 5.27338135 -5.31646729 4.35070801 C-4.88358088 0.66352706 -3.55699251 0.21777505 0 0 Z " fill="#FEFDF8" transform="translate(225.0625,198.8125)"/>
<path d="M0 0 C1 2.5625 1 2.5625 1 5 C0 7 0 7 -1.62890625 7.7734375 C-5.13718465 8.10866015 -7.67145299 6.88680258 -10.9375 5.625 C-23.25569534 0.90851451 -35.71892593 0.43451003 -48.3515625 4.34375 C-51.33365022 5.08267439 -53.9388331 5.17542504 -57 5 C-58 4 -58 4 -58.0625 0.9375 C-58.041875 -0.031875 -58.02125 -1.00125 -58 -2 C-55.95990245 -2.65077296 -53.91784331 -3.29539824 -51.875 -3.9375 C-50.16957031 -4.47697266 -50.16957031 -4.47697266 -48.4296875 -5.02734375 C-32.37281579 -9.58105794 -14.90035897 -7.3280454 0 0 Z " fill="#313B69" transform="translate(247,29)"/>
<path d="M0 0 C3.71168084 0.96768822 5.55692692 2.80821076 8.1875 5.5703125 C9.79056924 8.77645097 9.67490461 12.09171247 9.1875 15.5703125 C7.09387823 19.00983398 5.06842169 21.35059425 1.1875 22.5703125 C-2.11708299 22.99868437 -4.60640676 23.27027732 -7.5625 21.5546875 C-11.46580841 18.43954713 -12.59102013 16.21559153 -13.25 11.3203125 C-12.74196337 6.96571283 -11.70604588 5.02679199 -8.72265625 1.90234375 C-5.8186291 -0.12275494 -3.47484494 -0.27000484 0 0 Z " fill="#DCE1E5" transform="translate(190.8125,264.4296875)"/>
<path d="M0 0 C3.6578218 2.03993908 5.66946174 3.50419262 8 7 C8.73965025 11.59271203 8.60961194 15.02462089 6.125 19 C2.63362508 22.28599993 -0.01736104 22.41461134 -4.671875 22.33203125 C-8.88612634 21.73100547 -10.29181427 20.31752752 -13 17 C-14.18961888 13.88016618 -14.54663561 11.30235536 -14 8 C-10.56416722 2.09431937 -6.92638167 -0.66599824 0 0 Z " fill="#DCE1E5" transform="translate(184,163)"/>
<path d="M0 0 C2.77868051 1.9387481 4.52918766 3.94479908 6 7 C6.51387638 10.30913798 6.19145732 12.87534476 5 16 C2.32543417 19.27634314 0.87850772 20.63024101 -3.22265625 21.4375 C-7.31359542 21.65604767 -9.47299216 21.3293799 -13 19.125 C-16.3249055 15.5922879 -16.33797121 12.95079912 -16.28515625 8.2578125 C-15.76201821 4.11570586 -13.39001434 2.09215413 -10.25 -0.375 C-6.6336781 -1.37953386 -3.4938924 -1.23588928 0 0 Z " fill="#DCE1E5" transform="translate(336,164)"/>
<path d="M0 0 C3.02508145 1.73602105 5.41790069 3.83580137 7 7 C7.37593152 11.98109259 7.1765161 15.05673864 4 19 C1.28575479 21.12738138 -0.5239277 21.92909561 -3.9375 22.4375 C-8.45657016 21.79191855 -11.6072375 19.8359142 -14.375 16.1875 C-15.31707395 12.89024117 -15.41260656 10.4187401 -15 7 C-11.34207093 0.9079843 -7.04191354 -1.20195927 0 0 Z " fill="#DDE2E6" transform="translate(327,265)"/>
<path d="M0 0 C3.86134614 0.04843983 6.16579789 0.80078068 9.25 3.25 C12.08634436 7.50451655 11.99836793 11.25822671 11.25 16.25 C9.21085607 19.47316299 7.77018914 20.81291126 4.08984375 21.87109375 C0.28108347 22.48787129 -2.09895314 22.52704122 -5.6875 21 C-8.17003145 18.89360968 -9.59560249 17.20888979 -10.12109375 13.9453125 C-10.30199094 6.94352708 -10.30199094 6.94352708 -7.3125 3.1875 C-6.466875 2.548125 -5.62125 1.90875 -4.75 1.25 C-3.75 0.25 -3.75 0.25 0 0 Z " fill="#DDE2E6" transform="translate(307.75,93.75)"/>
<path d="M0 0 C3.86134614 0.04843983 6.16579789 0.80078068 9.25 3.25 C12.08634436 7.50451655 11.99836793 11.25822671 11.25 16.25 C9.21085607 19.47316299 7.77018914 20.81291126 4.08984375 21.87109375 C0.28108347 22.48787129 -2.09895314 22.52704122 -5.6875 21 C-8.17003145 18.89360968 -9.59560249 17.20888979 -10.12109375 13.9453125 C-10.30199094 6.94352708 -10.30199094 6.94352708 -7.3125 3.1875 C-6.466875 2.548125 -5.62125 1.90875 -4.75 1.25 C-3.75 0.25 -3.75 0.25 0 0 Z " fill="#DDE2E6" transform="translate(202.75,93.75)"/>
<path d="M0 0 C3.73639216 1.24546405 4.18756513 2.63404953 6 6 C0.23745859 11.32044168 -5.76546987 16.24707441 -11.96069336 21.04736328 C-15.12699019 23.50575702 -18.20322866 26.00735823 -21.1875 28.6875 C-24 31 -24 31 -27 31 C-28.75 29.25 -28.75 29.25 -30 27 C-29.71997328 24.56643448 -29.29563275 23.31986666 -27.62402344 21.51123047 C-27.04168945 21.05119629 -26.45935547 20.59116211 -25.859375 20.1171875 C-25.20670654 19.59398926 -24.55403809 19.07079102 -23.8815918 18.53173828 C-23.1781665 17.98501465 -22.47474121 17.43829102 -21.75 16.875 C-21.03432861 16.30894043 -20.31865723 15.74288086 -19.58129883 15.15966797 C-18.10983893 13.99861581 -16.6349581 12.84188642 -15.15673828 11.68945312 C-13.1390186 10.10889843 -11.1431147 8.50490435 -9.15234375 6.890625 C-7.99800952 5.96798169 -6.84309516 5.04606354 -5.6875 4.125 C-4.66011719 3.30257812 -3.63273437 2.48015625 -2.57421875 1.6328125 C-1.72472656 1.09398437 -0.87523437 0.55515625 0 0 Z " fill="#323B6A" transform="translate(427,59)"/>
<path d="M0 0 C4.70799248 1.47563943 7.89779107 4.26457981 11.5 7.5 C18.1111223 13.3124038 24.96261619 18.71611714 32 24 C31.30621489 27.26011642 30.54106009 28.79038253 28 31 C24.88104971 29.57399345 22.40342188 27.85384269 19.75 25.6875 C18.88890625 24.98882812 18.0278125 24.29015625 17.140625 23.5703125 C16.09347949 22.7138723 15.0466356 21.85706327 14 21 C11.89454466 19.27913567 9.78830575 17.55925061 7.68066406 15.84106445 C6.23821346 14.66459192 4.79742836 13.48607409 3.35839844 12.30541992 C2.69356445 11.76248291 2.02873047 11.2195459 1.34375 10.66015625 C0.74755859 10.17168213 0.15136719 9.68320801 -0.46289062 9.17993164 C-2.00675667 7.91750427 -2.00675667 7.91750427 -4 7 C-2.92598892 4.08482708 -2.22189824 2.22189824 0 0 Z " fill="#313B6A" transform="translate(83,59)"/>
<path d="M0 0 C2.31 0.66 4.62 1.32 7 2 C6.41227222 6.83320212 4.93861169 10.93085335 2.9453125 15.33203125 C2.64309784 16.00924728 2.34088318 16.68646332 2.0295105 17.38420105 C1.39258263 18.80520031 0.7519859 20.22456023 0.10791016 21.64233398 C-0.87738913 23.81777497 -1.84344835 26.00110275 -2.80859375 28.18554688 C-3.43114554 29.56822495 -4.0548048 30.95040503 -4.6796875 32.33203125 C-4.9672995 32.9861348 -5.2549115 33.64023834 -5.55123901 34.31416321 C-6.28836582 35.9149718 -7.13644521 37.46370015 -8 39 C-9.485 39.495 -9.485 39.495 -11 40 C-13.6875 38.5625 -13.6875 38.5625 -16 37 C-15.34360418 32.58826273 -13.72049647 28.78661645 -11.875 24.765625 C-11.56804199 24.08699402 -11.26108398 23.40836304 -10.94482422 22.70916748 C-10.29836506 21.28269306 -9.64939082 19.85735607 -8.99804688 18.43310547 C-7.99806556 16.24576865 -7.00623219 14.05487706 -6.015625 11.86328125 C-5.38588847 10.47634818 -4.75569616 9.08962195 -4.125 7.703125 C-3.82706543 7.0458844 -3.52913086 6.3886438 -3.22216797 5.71148682 C-1.11642196 1.11642196 -1.11642196 1.11642196 0 0 Z " fill="#313B6A" transform="translate(373,19)"/>
<path d="M0 0 C1.3399549 2.38040157 2.49532726 4.69152302 3.609375 7.17578125 C3.9404425 7.89734909 4.27151001 8.61891693 4.61260986 9.36235046 C5.31028843 10.89079967 6.00259598 12.42171017 6.68994141 13.95483398 C7.74438043 16.30000156 8.82201075 18.63346479 9.90234375 20.96679688 C10.57695077 22.45247653 11.2501744 23.93878529 11.921875 25.42578125 C12.40766022 26.47286003 12.40766022 26.47286003 12.90325928 27.54109192 C14.09824839 30.24244375 15.02855945 32.41135129 14.88378906 35.39526367 C14 37 14 37 10.9375 38.25 C9.968125 38.4975 8.99875 38.745 8 39 C3.98824598 31.27003493 0.27346883 23.40652576 -3.375 15.5 C-3.82794434 14.53239746 -4.28088867 13.56479492 -4.74755859 12.56787109 C-5.16859863 11.64828613 -5.58963867 10.72870117 -6.0234375 9.78125 C-6.40419434 8.95689453 -6.78495117 8.13253906 -7.17724609 7.28320312 C-8 5 -8 5 -8 1 C-3.375 -1.125 -3.375 -1.125 0 0 Z " fill="#313A6B" transform="translate(140,20)"/>
<path d="M0 0 C0.66 2.64 1.32 5.28 2 8 C-3.0524986 9.14476618 -8.10621362 10.28393881 -13.16113281 11.41796875 C-14.88022805 11.80445716 -16.59898218 12.1924661 -18.31738281 12.58203125 C-20.78882949 13.14203535 -23.26145524 13.69654209 -25.734375 14.25 C-26.50118591 14.42499023 -27.26799683 14.59998047 -28.05804443 14.78027344 C-31.48675738 15.54252917 -34.46747897 16 -38 16 C-38.66 13.69 -39.32 11.38 -40 9 C-35.96913062 7.23607225 -31.9025108 6.19397016 -27.6171875 5.2734375 C-26.92110382 5.12089508 -26.22502014 4.96835266 -25.50784302 4.81118774 C-24.04425705 4.49150495 -22.58020601 4.17394475 -21.11572266 3.85839844 C-18.8740534 3.37479579 -16.63424102 2.88321396 -14.39453125 2.390625 C-12.96885322 2.08025467 -11.54307526 1.77034288 -10.1171875 1.4609375 C-9.44839569 1.31409515 -8.77960388 1.16725281 -8.09054565 1.01596069 C-5.32336499 0.42338559 -2.84062287 0 0 0 Z " fill="#313B6B" transform="translate(459,119)"/>
<path d="M0 0 C8.84435352 0.91553638 17.5934858 3.16060101 26.25 5.125 C28.10044922 5.54072266 28.10044922 5.54072266 29.98828125 5.96484375 C32.99286263 6.64029228 35.99673613 7.31872183 39 8 C39.125 13.75 39.125 13.75 38 16 C29.46049508 15.32256441 21.25909654 13.36853593 12.9375 11.4375 C11.48513137 11.10435818 10.03265811 10.77167217 8.58007812 10.43945312 C5.05216362 9.63155359 1.52570504 8.81749479 -2 8 C-1.125 1.125 -1.125 1.125 0 0 Z " fill="#313B6A" transform="translate(53,119)"/>
<path d="M0 0 C4.875 4.625 4.875 4.625 6 8 C6.99 8.33 7.98 8.66 9 9 C8.0110976 11.99343428 7.00900877 14.97527519 5.9296875 17.9375 C3.10679035 26.13435691 2.53406182 33.36720091 3 42 C-3.06910803 34.9048823 -4.7004365 24.07182831 -4.40625 14.9765625 C-3.69130041 9.73818182 -1.94470477 4.89648881 0 0 Z " fill="#EFB957" transform="translate(115,236)"/>
<path d="M0 0 C1.02450206 2.64871265 1.04843257 3.84830555 0.171875 6.59375 C-3.92799089 14.97369566 -9.16342629 21.69962815 -16 28 C-16.66 28 -17.32 28 -18 28 C-17.80664062 27.39414062 -17.61328125 26.78828125 -17.4140625 26.1640625 C-17.15367187 25.32617188 -16.89328125 24.48828125 -16.625 23.625 C-16.33625 22.71234375 -16.0475 21.7996875 -15.75 20.859375 C-14.92468827 18.06966575 -14.92468827 18.06966575 -14.8125 15.390625 C-14.59726336 12.50286669 -14.30283146 10.60566292 -13 8 C-8.92935905 4.7519238 -4.63941989 2.33931313 0 0 Z " fill="#F2BB56" transform="translate(364,311)"/>
<path d="M0 0 C2.5 0.25 2.5 0.25 4.5 2.25 C4.75 5.75 4.75 5.75 4.5 9.25 C3.84 9.91 3.18 10.57 2.5 11.25 C-0.5625 11 -0.5625 11 -3.5 10.25 C-4.88125018 7.48749964 -4.69079306 5.30268901 -4.5 2.25 C-2.5 0.25 -2.5 0.25 0 0 Z " fill="#FEFCF5" transform="translate(224.5,181.75)"/>
<path d="M0 0 C0.66 1.65 1.32 3.3 2 5 C-0.1875 7.5625 -0.1875 7.5625 -3 10 C-7.19047619 9.80952381 -7.19047619 9.80952381 -9 8 C-9.3125 5.625 -9.3125 5.625 -9 3 C-6.19926731 -0.00819437 -4.01012625 -0.33417719 0 0 Z " fill="#323C68" transform="translate(179,34)"/>
<path d="M0 0 C2.625 0.375 2.625 0.375 5 1 C6.25 7.625 6.25 7.625 4 11 C1.4375 11.25 1.4375 11.25 -1 11 C-2.89488952 9.10511048 -2.18019112 6.42860854 -2.23046875 3.91015625 C-2 2 -2 2 0 0 Z " fill="#323B6A" transform="translate(346,404)"/>
</svg>
