<?xml version="1.0" encoding="UTF-8"?>
<svg version="1.1" xmlns="http://www.w3.org/2000/svg" width="512" height="512">
<path d="M0 0 C3.7094303 2.06079461 5.64380056 3.46570083 8 7 C10.46908281 7.69129287 10.46908281 7.69129287 13.3984375 7.95703125 C14.50751465 8.09641113 15.6165918 8.23579102 16.75927734 8.37939453 C17.95246582 8.52231934 19.1456543 8.66524414 20.375 8.8125 C50.32529887 12.88138366 77.00298006 23.90008528 99 45 C99.82113281 45.75796875 100.64226562 46.5159375 101.48828125 47.296875 C124.77905993 69.4647701 137.41626935 103.2211134 138.35131836 135.10400391 C138.67064988 167.41245296 125.65614124 195.28279037 107 221 C85.38806926 250.73544231 85.38806926 250.73544231 77 286 C76.94972656 286.825 76.89945312 287.65 76.84765625 288.5 C76.12348569 309.35611216 82.54087546 329.77800234 90.1171875 348.95703125 C91.32191098 353.10959583 91.67772009 356.95548128 90.30078125 361.109375 C87.96579508 364.98563662 86.05816736 367.06056645 82 369 C78.94680023 369.37752342 78.94680023 369.37752342 75.4720459 369.38095093 C74.83018388 369.3856309 74.18832187 369.39031087 73.52700949 369.39513266 C71.38433024 369.40706278 69.24229294 369.3976338 67.09960938 369.38818359 C65.56020231 369.3922502 64.02079816 369.39759258 62.48139954 369.40411377 C58.30580034 369.41778268 54.13042368 369.41249052 49.95482063 369.40297651 C45.58360319 369.39537771 41.21240472 369.40242614 36.84118652 369.40713501 C29.50069765 369.41259192 22.16029934 369.40540266 14.81982422 369.39111328 C6.33497341 369.37478687 -2.14966113 369.38007543 -10.6345067 369.3965925 C-17.92126837 369.41020922 -25.20796496 369.41212612 -32.49473524 369.40427649 C-36.84599826 369.39960099 -41.19715966 369.39897173 -45.54841614 369.40888596 C-49.63934763 369.41755606 -53.73000046 369.41153303 -57.82090187 369.39420319 C-59.32170461 369.39023856 -60.82253082 369.391372 -62.3233242 369.39799118 C-64.373214 369.40619813 -66.42221276 369.39589676 -68.4720459 369.38095093 C-70.19204929 369.37925431 -70.19204929 369.37925431 -71.94680023 369.37752342 C-75.39814279 368.95077026 -77.24032074 368.089119 -80 366 C-84.3266309 359.14407923 -85.87911205 351.50427863 -87.75 343.6875 C-88.06582031 342.41326172 -88.38164062 341.13902344 -88.70703125 339.82617188 C-91 330.45080831 -91 330.45080831 -91 327 C-91.87398438 327.19335938 -92.74796875 327.38671875 -93.6484375 327.5859375 C-138.37503052 337.05634818 -138.37503052 337.05634818 -156.34765625 327.1328125 C-160.47287704 324.30464695 -162.43496328 320.62247134 -164 316 C-165.35045199 305.12530769 -162.66802318 296.08706375 -159 286 C-159.60585937 285.87238281 -160.21171875 285.74476563 -160.8359375 285.61328125 C-164.53944209 284.56373212 -167.12624816 282.24821691 -169.3125 279.125 C-170.60961265 275.11574272 -170.54042152 272.10657739 -168.6875 268.3125 C-167.23888494 266.32736084 -165.81802534 264.64488007 -164 263 C-164.928125 262.443125 -165.85625 261.88625 -166.8125 261.3125 C-170.02704064 258.98038228 -171.45296521 257.60974785 -173 254 C-173.79423629 248.66727065 -172.01000455 246.28553123 -169 242 C-170.01320313 241.89042969 -171.02640625 241.78085937 -172.0703125 241.66796875 C-173.42194461 241.50840107 -174.77350343 241.34821167 -176.125 241.1875 C-176.79015625 241.11724609 -177.4553125 241.04699219 -178.140625 240.97460938 C-183.83365415 240.27693423 -188.0896315 238.70927708 -192.375 234.875 C-194.70380605 230.75480469 -194.95319351 227.53093352 -194 223 C-190.70607537 214.42761229 -186.02218358 207.46843567 -180.40234375 200.25390625 C-166.50948908 181.91211922 -160.95519056 162.83462328 -160.625 139.9375 C-159.6406333 103.94240842 -145.81155548 74.45974603 -119.921875 49.578125 C-95.01663312 26.40069971 -62.22912901 13.84809576 -29.02368164 8.91137695 C-22.77233131 7.89780539 -19.0703593 7.22031853 -15 2 C-9.74536772 -0.97432016 -5.71882691 -1.72840813 0 0 Z " fill="#FABC7F" transform="translate(284,143)"/>
<path d="M0 0 C3.895058 2.96220798 6.68461204 7.06453658 8.859375 11.4140625 C9.23449219 10.88296875 9.60960937 10.351875 9.99609375 9.8046875 C14.0497266 4.20924467 17.93340364 -0.69703622 24.859375 -2.5859375 C31.292416 -3.40087168 36.62730862 -2.56494597 41.859375 1.4140625 C46.35471292 6.35893421 48.87847814 10.36304394 49.421875 17.0390625 C49.50566406 18.04195312 49.58945312 19.04484375 49.67578125 20.078125 C49.73636719 20.84898437 49.79695313 21.61984375 49.859375 22.4140625 C50.69339844 22.36765625 51.52742188 22.32125 52.38671875 22.2734375 C60.86363046 22.00155488 67.45900669 22.36842638 73.89453125 28.28515625 C79.03723307 33.87137651 81.14505984 38.27755868 81.109375 45.9765625 C81.11710937 47.64912109 81.11710937 47.64912109 81.125 49.35546875 C80.87105105 52.27961622 80.38070351 53.94492218 78.859375 56.4140625 C79.560625 56.5996875 80.261875 56.7853125 80.984375 56.9765625 C86.59637199 59.78256099 89.91350007 64.70334158 92.25292969 70.44897461 C94.8382262 78.82620956 93.96240876 89.33314946 90.296875 97.1640625 C87.49455203 101.97951008 84.3628561 105.17155611 79.859375 108.4140625 C80.189375 109.4040625 80.519375 110.3940625 80.859375 111.4140625 C81.59459187 120.165971 80.60503825 127.06646177 75.296875 134.1640625 C70.72728738 139.07047476 65.1676654 141.17608406 58.546875 141.65234375 C55.63819172 141.6626339 52.76199445 141.59360597 49.859375 141.4140625 C49.77300781 142.27128906 49.68664062 143.12851562 49.59765625 144.01171875 C48.61787969 151.98476289 47.65043053 157.62208964 41.2109375 162.71875 C35.30650623 166.33116576 28.5579035 166.50957715 21.859375 165.4140625 C15.83927618 162.72261231 12.56232893 158.27046268 9.859375 152.4140625 C9.859375 151.7540625 9.859375 151.0940625 9.859375 150.4140625 C9.199375 150.4140625 8.539375 150.4140625 7.859375 150.4140625 C7.776875 151.3009375 7.694375 152.1878125 7.609375 153.1015625 C6.60061338 157.5569263 4.91677922 159.85834059 1.2734375 162.61328125 C-4.74684922 166.2330739 -11.30853937 166.53994927 -18.140625 165.4140625 C-23.68952646 162.85437968 -27.22102629 158.66934018 -30.140625 153.4140625 C-31.43783949 149.52241902 -31.27096493 146.51977024 -31.140625 142.4140625 C-30.810625 141.7540625 -30.480625 141.0940625 -30.140625 140.4140625 C-31.130625 140.7440625 -32.120625 141.0740625 -33.140625 141.4140625 C-40.54781713 142.0834532 -47.08342294 142.09048302 -53.140625 137.4140625 C-57.16630345 133.5956467 -60.61094874 129.83676484 -62.140625 124.4140625 C-62.0962843 122.37035944 -62.04610209 120.32546549 -61.90893555 118.28588867 C-61.27658835 111.36029603 -61.27658835 111.36029603 -63.73828125 105.16796875 C-65.14216799 104.11570972 -66.57312791 103.09871862 -68.02734375 102.1171875 C-73.1642283 97.97729533 -74.79452294 91.18594185 -75.58203125 84.87890625 C-75.88538625 75.88589821 -74.20097998 68.90895888 -69.140625 61.4765625 C-67.24018659 59.51673539 -65.4470374 57.87479035 -63.140625 56.4140625 C-62.480625 56.4140625 -61.820625 56.4140625 -61.140625 56.4140625 C-61.635625 54.9290625 -61.635625 54.9290625 -62.140625 53.4140625 C-64.10805665 46.31420044 -63.55378622 40.99375933 -60.33203125 34.44921875 C-58.61961113 31.52406831 -56.76511682 29.56137399 -54.140625 27.4140625 C-53.61082031 26.94871094 -53.08101562 26.48335937 -52.53515625 26.00390625 C-46.35643186 21.27434963 -39.63622622 21.72549021 -32.140625 22.4140625 C-31.480625 22.7440625 -30.820625 23.0740625 -30.140625 23.4140625 C-30.635625 22.4240625 -30.635625 22.4240625 -31.140625 21.4140625 C-31.68712228 15.07469402 -30.84725521 10.65970291 -27.140625 5.4140625 C-19.61548786 -2.64603699 -10.0447668 -5.58489034 0 0 Z " fill="#FE4646" transform="translate(268.140625,201.5859375)"/>
<path d="M0 0 C0.73863281 0.32871094 1.47726562 0.65742187 2.23828125 0.99609375 C15.68310823 7.70689686 23.54860492 18.58325733 28.25390625 32.54296875 C32.01844977 44.94033981 30.19384713 58.29178965 24.3125 69.75 C19.18079308 78.40346656 13.29355795 84.30695952 4.61328125 89.39453125 C3.75089844 89.92433594 2.88851562 90.45414062 2 91 C1.08476562 91.55429688 0.16953125 92.10859375 -0.7734375 92.6796875 C-3.88114758 95.91824853 -3.76392205 99.04330889 -3.9375 103.3125 C-4.39856099 109.30060849 -4.84837506 113.52972159 -9.3671875 117.87109375 C-14.21012511 121.21944057 -18.21072237 121.64437177 -24 121 C-28.71878688 119.30835942 -31.20582817 117.13951382 -34 113 C-37.04503417 103.86489749 -35.8043319 91.42906046 -32.3203125 82.609375 C-27.49351885 73.07003134 -19.92999749 66.76622739 -10.75 61.5625 C-6.42018702 58.89533521 -3.81418026 55.76846463 -2 51 C-0.96644823 45.67127817 -1.41600538 41.35694514 -4.125 36.625 C-7.23557085 32.25075974 -10.90706963 29.69764346 -16 28 C-22.76840255 27.47935365 -27.43172687 28.95705546 -32.75 33.1875 C-36.50774314 37.88467893 -37.80248485 42.78028442 -38.875 48.625 C-39.84621823 53.31112796 -41.58199587 55.66337692 -45 59 C-49.46372632 61.7288747 -53.913442 61.6438681 -59 61 C-63.85113998 58.66426593 -66.76436171 55.90120703 -69 51 C-70.75451396 38.07388696 -66.74897765 25.35498127 -59 15 C-44.92577649 -1.64054066 -20.67323044 -9.58027752 0 0 Z " fill="#6FDA3F" transform="translate(297,3)"/>
<path d="M0 0 C4.19779274 3.70967731 5.43942609 7.39040874 6.125 12.875 C5.41427579 18.56079369 3.24092417 21.89735262 -0.875 25.8125 C-5.76542567 28.03542076 -10.03381269 28.3924861 -15.3125 27.375 C-19.1539239 25.31758257 -21.56059222 22.70792743 -23.6875 18.9375 C-24.45894352 15.77458158 -24.86763353 12.59839687 -25.3125 9.375 C-59.01906451 15.35633191 -88.74440192 28.36021404 -114.3125 51.375 C-115.40111328 52.33792969 -115.40111328 52.33792969 -116.51171875 53.3203125 C-137.04513648 72.56258226 -150.35581782 101.56932779 -151.43603516 129.578125 C-151.49522808 131.88499547 -151.55044818 134.1919707 -151.60205078 136.49902344 C-152.23496501 163.3562865 -159.53720949 182.3933543 -175.3059082 203.82519531 C-181.22902649 211.90685884 -186.90392644 219.94231558 -185.3125 230.375 C-181.39906006 235.66965403 -176.96611026 236.91473783 -170.6640625 238.0078125 C-168.81941406 238.25144531 -168.81941406 238.25144531 -166.9375 238.5 C-165.06964844 238.75136719 -165.06964844 238.75136719 -163.1640625 239.0078125 C-162.22304687 239.12898437 -161.28203125 239.25015625 -160.3125 239.375 C-160.9725 240.40625 -161.6325 241.4375 -162.3125 242.5 C-164.27000923 245.98703257 -165.087669 248.32689523 -164.3125 252.375 C-161.4451655 256.47119214 -158.34039864 259.38284673 -154.3125 262.375 C-155.84244792 263.61197917 -157.37239583 264.84895833 -158.90234375 266.0859375 C-160.96820847 267.97440109 -161.29915228 269.29300689 -161.75 272.0625 C-161.1362799 276.70923793 -158.76199217 279.30526844 -155.3125 282.375 C-153.20429778 283.56553519 -153.20429778 283.56553519 -151.3125 284.375 C-151.9042236 287.64958689 -152.74119669 290.62793291 -153.875 293.75 C-156.16507482 301.26325039 -156.98240851 310.29731643 -153.96875 317.65625 C-150.97572029 322.5693365 -146.80515614 325.75216978 -141.3125 327.375 C-137.99032621 328.1070044 -134.65895074 328.76419152 -131.3125 329.375 C-131.3125 329.705 -131.3125 330.035 -131.3125 330.375 C-141.68784811 330.73623069 -152.45887922 330.44485822 -161.3125 324.375 C-167.14590318 318.38808621 -167.79196892 312.45991052 -167.71484375 304.37890625 C-167.24097374 297.43749175 -164.67216254 290.86407199 -162.3125 284.375 C-162.91835937 284.24738281 -163.52421875 284.11976563 -164.1484375 283.98828125 C-167.85194209 282.93873212 -170.43874816 280.62321691 -172.625 277.5 C-173.92211265 273.49074272 -173.85292152 270.48157739 -172 266.6875 C-170.55138494 264.70236084 -169.13052534 263.01988007 -167.3125 261.375 C-168.240625 260.818125 -169.16875 260.26125 -170.125 259.6875 C-173.33954064 257.35538228 -174.76546521 255.98474785 -176.3125 252.375 C-177.10673629 247.04227065 -175.32250455 244.66053123 -172.3125 240.375 C-173.32570313 240.26542969 -174.33890625 240.15585937 -175.3828125 240.04296875 C-176.73444461 239.88340107 -178.08600343 239.72321167 -179.4375 239.5625 C-180.10265625 239.49224609 -180.7678125 239.42199219 -181.453125 239.34960938 C-187.14615415 238.65193423 -191.4021315 237.08427708 -195.6875 233.25 C-198.01630605 229.12980469 -198.26569351 225.90593352 -197.3125 221.375 C-194.01857537 212.80261229 -189.33468358 205.84343567 -183.71484375 198.62890625 C-169.82198908 180.28711922 -164.26769056 161.20962328 -163.9375 138.3125 C-162.9531333 102.31740842 -149.12405548 72.83474603 -123.234375 47.953125 C-98.32913312 24.77569971 -65.54162901 12.22309576 -32.33618164 7.28637695 C-26.08483131 6.27280539 -22.3828593 5.59531853 -18.3125 0.375 C-11.61203387 -3.41771668 -6.74764786 -3.31016687 0 0 Z " fill="#E3AB73" transform="translate(287.3125,144.625)"/>
<path d="M0 0 C7.28968985 5.25394034 12.21924172 11.8521518 14.5859375 20.55859375 C15.65474968 31.7438375 14.61264774 40.88676475 7.4609375 49.74609375 C3.38119104 54.10964866 -1.45577431 57.2815642 -6.4140625 60.55859375 C-8.72764461 62.87217586 -8.26586427 68.21858364 -8.62109375 71.359375 C-9.52249124 74.99604762 -10.4323061 76.33836507 -13.4140625 78.55859375 C-18.16860095 79.23781353 -20.24089054 79.21850298 -24.4140625 76.87109375 C-27.86972757 71.14764848 -27.28300402 64.59817686 -25.90234375 58.1796875 C-25.22491769 56.17873538 -24.4233073 54.41297851 -23.4140625 52.55859375 C-22.93839844 51.65367188 -22.93839844 51.65367188 -22.453125 50.73046875 C-19.48371191 45.88674527 -15.59399403 43.70497234 -10.7265625 40.9453125 C-7.05516893 38.74371669 -5.02906303 36.67647639 -3.82421875 32.52734375 C-2.89851273 27.37865501 -3.53745636 23.7302366 -6.1953125 19.22265625 C-8.08188256 16.64676252 -9.36727863 15.61834466 -12.4140625 14.55859375 C-17.46532331 13.89016895 -21.23569396 13.98012192 -25.8515625 16.24609375 C-29.87969208 19.88123508 -31.34470697 22.87167601 -32.3515625 28.12109375 C-32.95027738 30.99492515 -33.44080791 32.6007692 -35.0390625 35.12109375 C-38.48415296 37.20628008 -41.48740723 37.23588131 -45.4140625 36.55859375 C-48.65019604 34.8160603 -49.23801565 34.08673431 -50.4140625 30.55859375 C-51.1913037 21.03738905 -47.98395462 12.98757786 -41.91796875 5.78125 C-31.28825477 -5.83042371 -13.52340453 -8.07465416 0 0 Z " fill="#6FDA3F" transform="translate(397.4140625,57.44140625)"/>
<path d="M0 0 C7.06589882 4.92065439 13.16094028 12.11935525 14.80859375 20.74609375 C16.05210174 32.45265379 14.67747143 41.33133453 7.1328125 50.86328125 C3.67820075 54.56408372 -0.22939146 57.25858706 -4.58984375 59.80078125 C-6.1752157 60.64673031 -6.1752157 60.64673031 -7.19140625 61.74609375 C-7.65082177 65.00748904 -8.028292 68.27420245 -8.3984375 71.546875 C-9.29976403 75.18326136 -10.20147472 76.53451064 -13.19140625 78.74609375 C-16.93531592 79.67475884 -20.25587699 79.24984028 -23.62890625 77.43359375 C-27.14438756 73.63687393 -26.46283273 68.67726707 -26.3984375 63.8125 C-25.85025757 55.69323119 -22.09893862 50.20094164 -16.19140625 44.74609375 C-13.91572928 43.10548942 -11.6181563 41.60115497 -9.20703125 40.16796875 C-6.30820469 38.12306009 -4.60654649 36.06857642 -3.5390625 32.66796875 C-2.75659814 26.70837717 -3.6096078 22.63662624 -7.19140625 17.74609375 C-10.28430342 14.8351317 -13.01700386 14.5120312 -17.12890625 14.30859375 C-21.8679342 14.4637405 -24.59983914 15.50492343 -28.19140625 18.74609375 C-30.64111546 21.80823026 -31.40521171 24.53548547 -32.12890625 28.30859375 C-32.72762113 31.18242515 -33.21815166 32.7882692 -34.81640625 35.30859375 C-38.26149671 37.39378008 -41.26475098 37.42338131 -45.19140625 36.74609375 C-48.42753979 35.0035603 -49.0153594 34.27423431 -50.19140625 30.74609375 C-50.96864745 21.22488905 -47.76129837 13.17507786 -41.6953125 5.96875 C-31.09766717 -5.60789259 -13.59353944 -7.7781215 0 0 Z " fill="#6FDA3F" transform="translate(192.19140625,57.25390625)"/>
<path d="M0 0 C1.21816406 0.03480469 1.21816406 0.03480469 2.4609375 0.0703125 C3.68683594 0.09738281 3.68683594 0.09738281 4.9375 0.125 C5.87722656 0.15980469 5.87722656 0.15980469 6.8359375 0.1953125 C6.1759375 1.2265625 5.5159375 2.2578125 4.8359375 3.3203125 C2.87842827 6.80734507 2.0607685 9.14720773 2.8359375 13.1953125 C5.703272 17.29150464 8.80803886 20.20315923 12.8359375 23.1953125 C11.30598958 24.43229167 9.77604167 25.66927083 8.24609375 26.90625 C6.18022903 28.79471359 5.84928522 30.11331939 5.3984375 32.8828125 C6.0121576 37.52955043 8.38644533 40.12558094 11.8359375 43.1953125 C13.94413972 44.38584769 13.94413972 44.38584769 15.8359375 45.1953125 C15.2442139 48.46989939 14.40724081 51.44824541 13.2734375 54.5703125 C10.98336268 62.08356289 10.16602899 71.11762893 13.1796875 78.4765625 C16.17271721 83.389649 20.34328136 86.57248228 25.8359375 88.1953125 C29.15811129 88.9273169 32.48948676 89.58450402 35.8359375 90.1953125 C35.8359375 90.5253125 35.8359375 90.8553125 35.8359375 91.1953125 C25.46058939 91.55654319 14.68955828 91.26517072 5.8359375 85.1953125 C0.00253432 79.20839871 -0.64353142 73.28022302 -0.56640625 65.19921875 C-0.09253624 58.25780425 2.47627496 51.68438449 4.8359375 45.1953125 C3.92714844 45.00388672 3.92714844 45.00388672 3 44.80859375 C-0.70350459 43.75904462 -3.29031066 41.44352941 -5.4765625 38.3203125 C-6.77367515 34.31105522 -6.70448402 31.30188989 -4.8515625 27.5078125 C-3.40294744 25.52267334 -1.98208784 23.84019257 -0.1640625 22.1953125 C-1.0921875 21.6384375 -2.0203125 21.0815625 -2.9765625 20.5078125 C-7.13917913 17.48787494 -8.81796857 15.27187611 -9.6640625 10.1953125 C-8.99352845 6.17210819 -7.2071219 4.80364913 -4.1640625 2.1953125 C-2.1640625 0.1953125 -2.1640625 0.1953125 0 0 Z " fill="#E3AB73" transform="translate(120.1640625,383.8046875)"/>
<path d="M0 0 C2.5 1.5625 2.5 1.5625 4 4 C4.5625 7.4375 4.5625 7.4375 4 11 C1.6875 13.6875 1.6875 13.6875 -1 16 C-4.59114227 19.95968432 -4.55676662 23.19372468 -4.42578125 28.37109375 C-3.68197921 32.96355958 -0.74725629 34.73474545 2.8125 37.3125 C4.53398318 39.7588182 4.47418069 42.14079541 4.33984375 45.05859375 C4 47 4 47 2.5 49.5 C-1.02470327 51.61482196 -4.06374914 51.83295196 -8 51 C-14.92538059 47.90780332 -18.17962314 41.81412294 -21.3125 35.25 C-23.26849866 26.00346089 -22.60726701 16.90845459 -17.640625 8.7734375 C-12.73434118 1.81865373 -8.60323984 -0.95591554 0 0 Z " fill="#CF3939" transform="translate(244,258)"/>
<path d="M0 0 C6.36222181 3.30835534 11.19820615 8.52278728 13.48828125 15.40625 C15.25904486 24.38172357 15.31294141 33.90603784 10.5703125 41.94140625 C7.66559854 45.74932729 4.29591015 48.85204492 0 51 C-4.37362014 51.49512681 -6.31955244 51.49223866 -9.9375 48.875 C-12 46 -12 46 -12.625 43 C-11.79622227 39.02186689 -10.04023948 37.61602002 -7 35 C-3.81108535 32.03886497 -3.06065556 30.09180015 -2.8125 25.625 C-2.99760378 22.04632694 -3.21961769 20.07520581 -5 17 C-6.010625 16.21625 -7.02125 15.4325 -8.0625 14.625 C-11 12 -11 12 -12.1875 8.5 C-12 5 -12 5 -10 2.0625 C-6.2416606 -0.52135834 -4.48185185 -0.70766082 0 0 Z " fill="#CF3939" transform="translate(318,258)"/>
<path d="M0 0 C4.19779274 3.70967731 5.43942609 7.39040874 6.125 12.875 C5.41427579 18.56079369 3.24092417 21.89735262 -0.875 25.8125 C-5.76542567 28.03542076 -10.03381269 28.3924861 -15.3125 27.375 C-19.16215712 25.31317297 -21.54904921 22.66954698 -23.75 18.9375 C-25.1224375 12.68528472 -24.47488069 7.96187255 -21.3125 2.375 C-14.42041506 -3.19732399 -7.98514655 -3.9172417 0 0 Z " fill="#72D940" transform="translate(287.3125,144.625)"/>
<path d="M0 0 C2.475 0.495 2.475 0.495 5 1 C5.33 4.63 5.66 8.26 6 12 C8.31 12 10.62 12 13 12 C12.64781353 18.86763621 8.9266793 24.34942253 3.9296875 28.875 C-0.95787127 32.62633662 -4.6829355 34.43768235 -11.05859375 34.34375 C-13 34 -13 34 -15.5 31.875 C-17.27801176 28.46714413 -17.70960213 26.78454468 -17 23 C-14.47603052 19.73368656 -12.76724607 18.24070465 -8.8125 17 C-5.87912735 16.29080088 -5.87912735 16.29080088 -4.75 13.9375 C-3.90822211 10.64053659 -3.19195197 7.33224485 -2.5625 3.98828125 C-2 2 -2 2 0 0 Z " fill="#D03939" transform="translate(312,212)"/>
<path d="M0 0 C7.58062914 3.86983166 12.65104405 9.19531737 16.375 16.8125 C17 19 17 19 17 22 C14.69 22 12.38 22 10 22 C9.93941406 22.69867188 9.87882812 23.39734375 9.81640625 24.1171875 C9.73261719 25.02726562 9.64882813 25.93734375 9.5625 26.875 C9.48128906 27.77992188 9.40007812 28.68484375 9.31640625 29.6171875 C9 32 9 32 8 34 C5.48039553 33.65246835 4.22697584 33.218246 2.375 31.4375 C1.08042535 29.1425722 0.60583073 27.53711829 0.0625 25 C-1.13169824 19.75717845 -3.69096757 17.8639614 -8.125 14.9375 C-11 13 -11 13 -13 10 C-13.5 7.125 -13.5 7.125 -13 4 C-8.82273148 -0.78857611 -6.32094742 -2.03555934 0 0 Z " fill="#D03939" transform="translate(308,321)"/>
<path d="M0 0 C2.8125 2.0625 2.8125 2.0625 5 5 C5.51447272 8.66561813 5.53780754 10.92438491 3.875 14.25 C1.50621246 16.46086837 -1.11087235 17.55543618 -4 19 C-7.28508 22.05043143 -7.68508045 25.61721569 -8.375 29.87890625 C-9.12081416 32.41001307 -9.86748394 33.45491313 -12 35 C-13.32 35 -14.64 35 -16 35 C-17.29721449 31.10835652 -17.13033993 28.10570774 -17 24 C-16.67 23.34 -16.34 22.68 -16 22 C-19.96 22.495 -19.96 22.495 -24 23 C-23.69264006 15.62336133 -20.36119513 11.34642065 -15.22265625 6.23046875 C-10.78563498 2.24006231 -6.24660861 -1.09315651 0 0 Z " fill="#D03939" transform="translate(254,320)"/>
<path d="M0 0 C3.26460973 1.80412643 4.88929795 2.83394693 7 6 C7.19712792 7.41275009 7.36101333 8.83035042 7.5 10.25 C8.38627609 14.80799131 10.2862432 16.40013045 14.0625 19 C15.69940345 20.01455135 17.34323678 21.01821439 19 22 C20 23 20 23 20.3125 26.8125 C20.25377389 29.78617685 20.07349312 30.87751147 18.5 33.5 C14.95909184 35.6245449 11.95260741 35.81356036 8 35 C0.83046267 32.03659124 -4.87926162 26.05706473 -8.4375 19.25 C-9 17 -9 17 -9 13 C-3.25 12.875 -3.25 12.875 -1 14 C-1.33 13.34 -1.66 12.68 -2 12 C-2.40601504 3.60902256 -2.40601504 3.60902256 0 0 Z " fill="#D03939" transform="translate(239,211)"/>
<path d="M0 0 C0.37753418 1.55110474 0.37753418 1.55110474 0.76269531 3.13354492 C1.70385991 6.98532194 2.66212134 10.83267661 3.62548828 14.67895508 C4.03931457 16.34121664 4.44855429 18.00462727 4.85302734 19.66918945 C5.43672995 22.06781993 6.03704573 24.46177309 6.640625 26.85546875 C6.81684387 27.5952446 6.99306274 28.33502045 7.17462158 29.09721375 C8.81076292 35.46723721 11.5960885 39.33306005 17 43 C15.10489301 43.08160748 13.20875496 43.13946459 11.3125 43.1875 C9.72888672 43.23970703 9.72888672 43.23970703 8.11328125 43.29296875 C4.4178531 42.9452183 2.84077291 42.39793269 0 40 C-4.15097731 34.04986064 -5.58075095 26.8160101 -7.25 19.875 C-7.6521875 18.28751953 -7.6521875 18.28751953 -8.0625 16.66796875 C-9.3008023 11.63262724 -10.14390945 7.21240045 -10 2 C-3.375 0 -3.375 0 0 0 Z " fill="#E3AB73" transform="translate(204,469)"/>
<path d="M0 0 C2.0625 2.6875 2.0625 2.6875 3 6 C2.42613948 9.76197454 1.81457207 12.09815236 -0.75 14.9375 C-4.38644622 16.65471071 -7.47074268 16.50975244 -11.25 15.25 C-13.46898968 13.66500737 -14.13676251 12.58971247 -15 10 C-15.49050606 6.1577025 -15.31513963 4.50647441 -13.25 1.1875 C-8.87015221 -3.07068535 -5.54459417 -2.31864847 0 0 Z " fill="#6FDA3F" transform="translate(181,149)"/>
<path d="M0 0 C2.39365768 3.77182422 3.2038657 5.8221093 2.4375 10.25 C0.87932286 13.23086061 -0.00115418 14.50057709 -3 16 C-6.87718692 16.40387364 -9.7800434 16.299969 -13 14 C-15.3020949 10.77706714 -15.47510654 7.88003676 -15 4 C-13.32154253 1.30247907 -12.02743638 -0.46856739 -9.1875 -1.9375 C-5.65212281 -2.03851078 -3.24742107 -1.41705647 0 0 Z " fill="#6FDA3F" transform="translate(386,149)"/>
</svg>
